<?xml version="1.0" encoding="UTF-8"?>
<svg id="Layer_1" xmlns="http://www.w3.org/2000/svg" viewBox="0 0 1080.28 1080.28">
  <defs>
    <style>
      .cls-1, .cls-2 {
        fill: none;
      }

      .cls-3 {
        fill: #fff;
      }

      .cls-4 {
        fill: #666;
      }

      .cls-2 {
        stroke: #000;
        stroke-miterlimit: 10;
        stroke-width: 14px;
      }

      .cls-5 {
        fill: #888;
      }

      .cls-6 {
        fill: #ff9500;
      }
    </style>
  </defs>
  <g>
    <path class="cls-1" d="M884.22.28H196.34c-2.29,0-4.56.05-6.83.13h350.49v540H.28v343.81c0,108.28,87.78,196.06,196.06,196.06h687.88c108.28,0,196.06-87.78,196.06-196.06V196.34C1080.28,88.06,992.5.28,884.22.28Z"/>
    <path class="cls-4" d="M540,.41H189.51C84.39,4.01.28,90.34.28,196.34v344.07h539.72V.41Z"/>
  </g>
  <g>
    <path class="cls-1" d="M1080,185.6v354.81h-540V.41h356.75c-4.14-.26-8.32-.41-12.53-.41H196.34C88.06,0,.28,87.78.28,196.06v687.88c0,108.28,87.78,196.06,196.06,196.06h687.88c108.28,0,196.06-87.78,196.06-196.06V196.06c0-3.51-.1-7-.28-10.46Z"/>
    <path class="cls-6" d="M540,540.41h540V185.6C1074.78,86.34,995.74,6.66,896.75.41h-356.75v540Z"/>
  </g>
  <g>
    <path class="cls-1" d="M883.94,0H196.06C87.78,0,0,87.78,0,196.06v687.88c0,108.28,87.78,196.06,196.06,196.06h343.94v-539.72h540V196.06c0-108.28-87.78-196.06-196.06-196.06Z"/>
    <path class="cls-5" d="M540,1080h343.94c108.28,0,196.06-87.78,196.06-196.06v-343.66h-540v539.72Z"/>
  </g>
  <g>
    <path class="cls-1" d="M883.94,0H196.06C87.78,0,0,87.78,0,196.06v687.88c0,3.51.1,7,.28,10.46v-354.12h540v539.72h343.66c108.28,0,196.06-87.78,196.06-196.06V196.06c0-108.28-87.78-196.06-196.06-196.06Z"/>
    <path class="cls-4" d="M.28,540.28v354.12c5.44,103.42,91.01,185.6,195.78,185.6h344.22v-539.72H.28Z"/>
  </g>
  <g>
    <rect class="cls-3" x="676.5" y="838.01" width="267" height="52.67"/>
    <rect class="cls-3" x="676.5" y="729.88" width="267" height="52.67"/>
  </g>
  <rect class="cls-3" x="676.5" y="244.07" width="267" height="52.67"/>
  <polygon class="cls-3" points="403.78 244.07 296.61 244.07 296.61 136.91 243.94 136.91 243.94 244.07 136.78 244.07 136.78 296.74 243.94 296.74 243.94 403.91 296.61 403.91 296.61 296.74 403.78 296.74 403.78 244.07"/>
  <polygon class="cls-3" points="383.02 734.5 345.78 697.26 270 773.04 194.22 697.26 156.98 734.5 232.76 810.28 156.98 886.06 194.22 923.3 270 847.52 345.78 923.3 383.02 886.06 307.24 810.28 383.02 734.5"/>
  <line class="cls-2" x1="540" y1=".41" x2="540" y2="1080"/>
  <line class="cls-2" x1=".2" y1="540" x2="1079.8" y2="540"/>
</svg>