<?xml version="1.0" encoding="UTF-8"?>
<svg id="Layer_1" xmlns="http://www.w3.org/2000/svg" viewBox="0 0 1081 1081">
  <defs>
    <style>
      .cls-1, .cls-2 {
        fill: none;
      }

      .cls-3 {
        fill: #444;
      }

      .cls-4 {
        fill: #fff;
      }

      .cls-2 {
        stroke: #000;
        stroke-miterlimit: 10;
        stroke-width: 14px;
      }

      .cls-5 {
        fill: #888;
      }

      .cls-6 {
        fill: #ff9500;
      }
    </style>
  </defs>
  <g>
    <path class="cls-3" d="M884.94,1H197.06c-2.29,0-6.83,1-6.83,1h350.77v539H1v343.94c0,108.28,87.78,196.06,196.06,196.06h687.88c108.28,0,196.06-87.78,196.06-196.06V197.06c0-108.28-87.78-196.06-196.06-196.06Z"/>
    <path class="cls-3" d="M541,1H190.33C85.16,4.6,1,90.93,1,196.93v344.07h540V1Z"/>
  </g>
  <g>
    <path class="cls-1" d="M1081,186.32v354.68h-540V0h356.47c-4.14.87-12.53,1-12.53,1H197.06C88.78,1,1,88.78,1,197.06v687.88c0,108.28,87.78,196.06,196.06,196.06h687.88s196.06-88.06,195.06-196.34V196.78c1-3.51,1-10.46,1-10.46Z"/>
    <path class="cls-6" d="M541,541h540V186.19c-5.22-99.26-84.26-178.94-183.25-185.19h-356.75v540Z"/>
  </g>
  <g>
    <path class="cls-1" d="M884.94,1H197.06C88.78,1,1,88.78,1,197.06v687.88c0,108.28,87.78,196.06,196.06,196.06h343.94v-540h540V197.06c0-108.28-87.78-196.06-196.06-196.06Z"/>
    <path class="cls-5" d="M541,1081h343.94c108.28,0,196.06-87.78,196.06-196.06v-343.94h-540v540Z"/>
  </g>
  <path class="cls-1" d="M884.94,1H196.78S.72,88.5,0,196.78v687.88c.72,3.51.82,7,1,10.46v-354.12h540v540h343.94c108.28,0,196.06-87.78,196.06-196.06V197.06c0-108.28-87.78-196.06-196.06-196.06Z"/>
  <path class="cls-3" d="M1,541v354.31c5.44,103.47,91.01,185.69,195.78,185.69h344.22v-540H1Z"/>
  <g>
    <rect class="cls-4" x="677" y="839" width="267" height="53"/>
    <rect class="cls-4" x="677" y="730" width="267" height="53"/>
  </g>
  <rect class="cls-4" x="677" y="245" width="267" height="53"/>
  <polygon class="cls-4" points="404 245 298 245 298 138 245 138 245 245 137 245 137 298 245 298 245 405 298 405 298 298 404 298 404 245"/>
  <polygon class="cls-4" points="383.74 735.22 346.5 697.98 270.72 773.76 194.94 697.98 157.7 735.22 233.48 811 157.7 886.78 194.94 924.02 270.72 848.24 346.5 924.02 383.74 886.78 307.96 811 383.74 735.22"/>
  <line class="cls-2" x1="541" y1="1" x2="541" y2="1081"/>
  <line class="cls-2" x1="1" y1="541" x2="1081" y2="541"/>
</svg>