<?xml version="1.0" encoding="UTF-8"?>
<svg id="Layer_1" data-name="Layer 1" xmlns="http://www.w3.org/2000/svg" viewBox="0 0 1080 1080">
  <rect width="1080" height="1080" rx="226.47" ry="226.47" style="fill: #444;"/>
  <path d="M889.34,87.21c-16.81-3.11-28.15,10.88-31.88,15.48-6.35,7.84-12.75,18.54-20.16,30.93-3.93,6.56-8.14,13.6-12.74,20.88,3.28-12.99,4.78-26.7,3.74-41.02-.94-13.02-6.12-55.9-33.11-60.88-16.82-3.11-28.15,10.88-31.88,15.48-6.35,7.84-12.75,18.54-20.16,30.93-7.35,12.3-15.69,26.23-25.74,40.34-34.13,47.94-71.59,74.95-98.95,94.67-37.05,26.71-74.98,44.15-108.44,59.53-41.49,19.07-80.68,37.09-108.5,68.34-5.86,6.58-21.42,24.07-31.05,51.8-3.8,10.94-9.83,33.59-7.56,62.42,1.04,13.19,4.51,33.68,15.17,56.36,2.23,4.76,4.71,9.43,7.37,13.91,4.76,8.01,8.32,12.45,11.77,16.74,1.83,2.29,3.57,4.44,5.59,7.29,5.13,7.21,7.88,12.84,10.08,17.37,1.57,3.21,3.51,7.17,6.4,10.62-4.31,11.21-5.24,21.6-5.71,26.93l-.08.84h0c-4.06,44.27-37.5,84.78-83.78,140.85-19.32,23.41-41.23,49.95-63.33,79.92-1.13,1.53-3.76,5.1-8.42,8.12-5.45,3.53-10.8,4.4-14.35,4.97-10.8,1.74-21.61,3.82-32.06,5.83-14.49,2.79-29.46,5.67-44.1,7.57-2.93.38-10.72,1.39-19.06,6.6-4.79,2.99-11.54,8.54-16.49,18-7.17,13.69-7.45,30.16-.77,44.05,7.16,14.87,20.6,21.6,25.01,23.81,56.95,28.52,152.03,24.86,156.05,24.69,14.07-.59,24.86-1.52,36.08-3.11,10.32-1.46,21.91-3.09,34.23-6.16,12.06-3.01,24.81-7.39,37.72-14.32,14.17-7.6,23.44-15.54,31.61-22.54,7.7-6.6,23.74-20.33,77.6-91.08l.16-.22c4.75-6.24,8.51-11.18,15.25-15.49,6.9-4.41,12.14-5.28,26.27-7.14,3.89-.51,8.29-1.09,13.3-1.86,9.42-1.45,34.32-5.8,61.93-14.92,23.06-7.61,36.55-14.72,48.12-25.35,3.65-3.35,12.2-11.21,18.88-23.34,15.04-27.3,9.61-54.53,3.87-83.35-1.97-9.89-3.71-18.63-5.88-26.33,12.04.39,23.84.11,35.27-.86,10.15-.86,18.5-2.11,26.08-4,5.78-1.44,11.12-3.25,16.45-5.53,3.73-1.59,7.25-3.1,10.38-5.11,19.99-12.83,21.9-44.44,20.78-65.06,7.36-2.22,15.75-5.04,23.02-10.15,8.67-6.1,14.28-14.75,15.39-23.72,1.3-10.5-3.32-20.03-8.87-28.27,12.97-6.36,20.3-13.43,23.52-23.68,3.16-10.08,1.78-22.32,1.19-27.54-1.4-12.35-5.25-24.21-11.41-35.33,23.9-11.1,48.69-23.8,68.64-36.71,5.85-3.79,21.39-13.85,23.08-30.38.23-2.24.92-9.05-6.32-22.86-6.01-11.46-14.31-21.81-24.7-30.87,3.16-3.86,6.15-7.85,8.92-12.01,10.36-15.56,11.68-23.92,11.67-29.48-.03-14.24-8.1-24.4-15.9-34.22-5.21-6.57-11.21-12.5-17.9-17.74,8.44-19.48,13.45-40.94,11.8-63.76-.94-13.02-6.12-55.9-33.11-60.88ZM865.61,150.55c5.62-9.4,12.85-21.48,17.88-27.64,2.51,5.71,5.23,15.98,6.07,27.57,4.11,56.71-47.47,105.96-72.25,129.62-21.01,20.07-39.73,32.51-52.12,40.75-33.96,22.58-69.19,38.99-117.95,61.7l-1.25.58c-10.97,5.1-27.54,12.81-48.68,25.48-37.1,22.23-48.71,35.94-54.27,44.42-.18.28-.44.68-.77,1.18l.05.03c-2.31,3.3-4.89,8.24-8.07,15.78-5.31,12.6-8.55,25.39-9.65,38-2.44,28.1,17.73,60.86,35.52,89.76,3.98,6.46,8.8,14.3,12.32,20.7-.38.07-.77.14-1.16.21-2.6.49-4.85,1-6.86,1.5-.02,0-.05,0-.07.01-10.24,1.97-16.25,3.73-20.22,4.89-.03,0-.05.01-.08.02-4.16.27-6.5.29-8.24-.29-1.12-1.23-4.14-4.92-9.72-14.22-1.39-2.91-2.81-6.13-4.32-9.6-2.35-5.41-4.88-11.24-7.93-16.84-1.68-4.51-2.55-7.38-3.39-10.14-1.22-4.01-2.37-7.79-5.22-14.43-1.61-3.74-5.71-12.41-10.84-21.13-3.53-6-7.11-10.66-10.46-14.42-4.57-5.46-8.02-8.58-10.63-10.94-1.49-1.35-2.39-2.17-3.18-3.06-4.92-6.86-5.99-17.04-4.89-27.76.57-4.95,1.46-9.23,1.97-11.72.06-.31.14-.61.2-.92,1.37-5.78,3.17-11.4,5.15-16.43.28-.72.58-1.43.89-2.14,1.94-4.4,3.89-7.93,5.43-10.46.46-.74.93-1.48,1.41-2.2,3.23-4.7,12.36-15.69,35.78-32.96,6.97-4.55,14.47-8.98,22.41-13.53,8.98-5.15,17.35-9.8,25.21-14.02,30.3-15.74,55.09-26.8,63.27-30.45.98-.44,1.76-.78,2.33-1.04,7.9-3.32,15.11-6.19,21.89-8.89,27.32-10.89,48.9-19.5,80.67-42.08l.21-.15c25.47-18.1,68.09-48.4,106.41-102.2,10.81-15.18,19.5-29.72,27.18-42.55ZM395.81,473.52c-1.87-23.69,3.46-42.17,5.84-49.02,7.48-21.53,19.87-35.45,24.53-40.69,23.23-26.1,57.71-41.95,97.64-60.31,34.82-16.01,74.29-34.15,113.95-62.74,27.57-19.88,69.23-49.91,106.52-102.29,10.81-15.18,19.5-29.72,27.17-42.54,5.62-9.4,12.85-21.48,17.88-27.64,2.51,5.71,5.23,15.98,6.07,27.57,4.19,57.87-49.3,108.08-72.15,129.53-40.86,38.36-88.36,62.2-107.09,70.75-18.16,7.62-39.88,17.51-68.14,32.72,0,0,0,0-.01,0-24.19,12.58-40.8,22.23-50.76,29.48-23.64,15.53-43.26,33.38-54.67,61.01-2.91,6.86-5.74,15.1-7.7,24.5-.01.07-.03.15-.05.22-.57,2.59-1.07,5.17-1.48,7.72-.1.58-.19,1.17-.29,1.78,0,.06-.02.12-.03.17,0,.01,0,.02,0,.03-2.32,14.98-3.42,38.42,10.76,56.2h0s0,.02.01.02c.17.22.33.44.51.66.09.11.19.22.28.33,2.57,3.25,5.38,5.92,8.12,8.47,2.05,1.91,4.13,3.86,6.23,6.19.36.44.73.89,1.12,1.38.02.03,1.79,2.32,6.64,10.44-.43.1-.89.22-1.34.33-8.16,1.68-15.31,5.4-20.81,9.09-1.5.83-2.86,1.6-4.07,2.29-2.39-4.71-5.74-10.77-10.81-17.89-2.57-3.62-4.78-6.37-6.73-8.8-3.11-3.87-5.56-6.93-9.14-12.95-2.11-3.56-4.09-7.29-5.87-11.08-9-19.15-11.47-36.37-12.14-44.93ZM684.91,688.17c5.47,27.43,8.37,45.05-.41,60.99-4.08,7.41-9.43,12.33-12.31,14.97-6.7,6.15-15.08,11.37-36.15,18.32-25.96,8.57-49.88,12.6-56.59,13.63-4.66.72-8.87,1.27-12.59,1.76-14.69,1.93-26.29,3.46-39.73,12.06-11.68,7.47-18.08,15.88-23.73,23.3l-.16.21c-51.73,67.96-66.5,80.6-72.81,86-7.57,6.48-14.73,12.61-25.75,18.52-20.94,11.24-42.21,14.24-60.97,16.89-10.1,1.43-19.92,2.27-32.86,2.81-.9.04-90.61,3.45-139.89-21.23-3.85-1.93-8.06-4.46-10.07-8.63-2.57-5.35-1.55-10.97.27-14.45,1.52-2.9,3.41-4.49,4.74-5.32,1.2-.75,2.41-1.18,3.48-1.45.92-.23,1.75-.34,2.38-.42,15.62-2.03,31.1-5.01,46.06-7.89,10.21-1.97,20.78-4,31.09-5.66,5.11-.83,15.76-2.55,27.03-9.85,9.7-6.29,15.21-13.77,17.04-16.24,21.55-29.23,43.15-55.4,62.21-78.48,48.16-58.35,86.2-104.43,91.19-158.84l.08-.95c.56-6.35,1.88-21.23,11.61-30.13,1.2-1.09,2.55-2.18,3.98-3.19,3.26-1.81,6.05-3.35,7.13-3.91.97-.33,1.97-.62,2.96-.89,1.39-.28,2.7-.34,3.87-.1,2.64.54,5.28,3.75,7.8,8.07,2.66,7.02,6.6,17.05,13.19,28.18,4.5,9.12,10.23,18.34,18.51,24.69,1.12.91,2.19,1.64,3.23,2.24,4.77,2.98,10.32,5.04,16.84,5.72,5.99.62,10.16-.08,14.28-1.17,6.95-.66,11.44-2.12,15.77-3.53,1.86-.61,3.68-1.2,5.85-1.78,16.8-2.97,54.12-2.85,68.34-2.81,6.39.02,11.64,0,16,0,7.63-.02,13.81-.03,16.17.21,5.89,4.07,8.25,14.86,12.94,38.34ZM792.43,628.79c-2.2,1.41-5.09,2.65-8.44,4.08-10.92,4.67-22.06,7.14-38.45,8.52-12.56,1.06-25.61,1.24-38.95.6-3.87-8.39-9.15-15.08-17.32-20.25-2.11-1.34-4.04-2.32-6.09-3.06.84-.92,1.67-1.85,2.5-2.77,6.27-6.97,12.18-13.55,19.71-17.01,5.19-2.38,11.15-3.29,17.45-4.24,30.06-4.55,57.53-9,84.45-16.14.91,25.08-4.49,43.61-14.87,50.27ZM845.66,539.34c-.66,5.29-4.26,10.59-9.89,14.55-5.8,4.08-12.9,6.41-19.67,8.45-30.15,9.06-60.96,14.09-95.21,19.28-6.94,1.05-14.11,2.14-20.99,5.3-10,4.6-17.12,12.52-24.01,20.17-3.05,3.39-6.01,6.69-9.12,9.58-3.12-.04-6.73-.04-11.02-.03-4.3,0-9.5.02-15.82,0-10.54-.03-21.5,0-31.98.23-1.08-3.18-2.32-5.79-3.09-7.42-2.75-5.78-6.56-12.37-10.8-19.38.36.01.72.04,1.08.05,15.14.43,29.38-.99,42.42-4.25,2.26-.56,4.49-1.18,6.67-1.86,17.12-5.27,28.46-12.34,35.97-17.02.75-.47,1.46-.91,2.12-1.32,13.72-8.43,21.47-10.35,44.45-16.02,15.98-3.94,37.86-9.35,73.07-19.62,15.14-4.42,27.56-8.24,37.65-12.06,4.74,6.66,9.05,14.22,8.17,21.37ZM861.47,462.95c.45,4.02,1.66,14.68-.67,22.11-3.94,12.57-20.37,19.39-64.66,32.31-34.95,10.2-56.68,15.56-72.54,19.48-23.82,5.87-32.72,8.08-48.19,17.59-.69.42-1.42.88-2.2,1.36-6.93,4.32-17.39,10.85-32.87,15.61-13.43,4.13-28.51,5.99-44.84,5.52-3.29-.09-6.59-.31-9.88-.62-6.13-10-12.92-21.28-18.3-32.13,17.08.27,33.24-1.48,48.38-5.25,12.3-3.07,23.93-7.46,34.84-13.18,8.7-4.56,14.19-8.51,20.55-13.08,4.76-3.43,10.16-7.31,18.04-12.25,21.58-13.54,38.89-20.68,87.19-38.22v-.03c4.94-1.78,37.55-13.83,74.82-30.55,5.61,9.86,9.09,20.39,10.33,31.33ZM936.89,342.3c3.48,6.63,5.21,12.1,4.88,15.39-1.05,10.24-12.73,17.8-17.13,20.65-55.54,35.95-151.85,71.1-152.82,71.45-49.33,17.91-67.08,25.26-89.7,39.44-8.23,5.16-13.81,9.18-18.73,12.72-6.2,4.46-11.09,7.98-18.97,12.11-23.93,12.54-51.83,18.14-83.02,16.72-2.83-7.51-4.43-14.38-3.95-19.91.56-6.47,1.91-12.53,3.52-17.86,11.54-1.31,22.83-3.32,33.83-6.06,16.21-4.04,31.8-9.64,46.64-16.75,14.31-6.86,20.21-11.41,27.03-16.68,6.68-5.16,14.26-11.01,32.79-20.98,16.16-8.7,27.99-13.7,42.98-20.04,15.1-6.38,33.88-14.32,63.79-28.86,11.82-5.74,18.66-9.26,24.29-12.21,35.91-18.8,55.67-33.23,67.41-42.45,5.46-4.29,10.57-8.92,15.35-13.83,9.21,8,16.53,17.12,21.8,27.16ZM918.23,237.8c7.27,9.16,13.02,16.4,13.04,26.05,0,1.96.02,7.92-9.45,22.13-8.23,12.35-18.4,23.32-30.24,32.62-11.33,8.9-30.43,22.85-65.38,41.14-5.54,2.9-12.28,6.37-23.94,12.03-29.59,14.38-48.2,22.25-63.16,28.57-15.3,6.47-27.39,11.58-44.1,20.57-19.47,10.49-27.51,16.68-34.59,22.15-6.49,5.01-11.62,8.97-24.68,15.23-21.58,10.34-44.85,17.28-69.41,20.73,1.98-4.22,3.55-6.79,3.72-7.07l.61-.93c7.17-10.92,27.66-24.58,43.59-34.13,19.66-11.78,35.3-19.05,45.64-23.87l1.27-.59c50.08-23.32,86.26-40.17,122.29-64.13,13.35-8.88,33.52-22.29,56.63-44.36,16.15-15.42,45.66-43.61,64.7-79.86,4.97,4.14,9.47,8.7,13.44,13.7Z" style="fill: #fff;"/>
</svg>